<svg id="Layer_1" data-name="Layer 1" xmlns="http://www.w3.org/2000/svg" viewBox="0 0 392.84 462.8">
  <defs>
    <style>
      .cls-1 {
        fill: #4fb2e8;
      }
    </style>
  </defs>
  <title>srx-logo</title>
  <g id="layer3">
    <path class="cls-1" d="M215.85,487.15c-17.19-1.23-33.63-6.52-49.18-13.72-6.41-3-12.54-7.15-18.42-11.11A112,112,0,0,1,124,439.79a173.44,173.44,0,0,1-12-16.17c-7-11.09-11.37-23.26-15-35.79a122.89,122.89,0,0,1-3.05-12.45c-4.2-22.81-1.59-47.64,6.54-69.28q.5-1.33,1-2.65a164.13,164.13,0,0,1,10.86-21.3l3.86-6.55c4.4-7.47,10.38-13.81,16.76-19.61,10.5-9.52,21.49-18.12,34.3-24.31a136.22,136.22,0,0,1,46.62-13.07,142.38,142.38,0,0,1,34.64.95q3.26.49,6.5,1.14a115.6,115.6,0,0,1,12.45,3.17c4.35,1.39,8.61,3,12.83,4.77A116.07,116.07,0,0,1,304,242.24q5.55,4,10.91,8.31a77.85,77.85,0,0,1,6.88,6c1.8,1.83,3.44,3.8,5.08,5.78l4.75,5.73c3.25,3.91,6,8.07,8.89,12.3,1.47,2.18,2.95,4.36,4.27,6.64q1.09,1.88,2,3.84a193,193,0,0,1,7.64,17.88A90.6,90.6,0,0,1,358,320.68a151.71,151.71,0,0,1,3.9,35.58q0,.55,0,1.1c-.09,2.48-.21,5-.43,7.45A145.4,145.4,0,0,1,359,380a113.38,113.38,0,0,1-3.37,12.71q-1.41,4.36-3.06,8.63c-.6,1.56-1.23,3.11-1.86,4.66a79.63,79.63,0,0,1-4.58,10.12c-.7,1.21-1.41,2.41-2.15,3.6-1.12,1.79-2.31,3.53-3.5,5.27-5,7.3-10.39,14.78-16.5,21.2a137.68,137.68,0,0,1-14,12.48c-3.25,2.59-6.76,4.81-10.22,7.1A153.11,153.11,0,0,1,279.4,477c-5,2.31-10.33,3.58-15.55,5.2A117.31,117.31,0,0,1,237.25,487c-4.29.3-8.58.28-12.88.35C221.52,487.44,218.68,487.35,215.85,487.15Z" transform="translate(-59.58 -24.6)"/>
    <path class="cls-1" d="M398.08,468.18a25.4,25.4,0,0,1-2.8-.62,27.82,27.82,0,0,1-11.2-6.6,37,37,0,0,1-4.35-4.88A28.14,28.14,0,0,1,374,437.64c.38-6,2-11.88,2.94-17.8q.79-5,1.64-9.91c.52-3,1.35-6.17,1.35-9.25.28-2.19.67-4.37,1-6.55l.42-2.55c1.29-7.76,2.5-15.53,3.78-23.29l1.08-6.54a73,73,0,0,1,1.67-8.45,14.26,14.26,0,0,0,.25-3.49c0-1.24.22-2.51.35-3.74.31-2.9.81-5.78.92-8.7a19.66,19.66,0,0,0-1-7.35,45.93,45.93,0,0,1-2.16-7.47,16,16,0,0,0-1.06-3.28,29.11,29.11,0,0,1-1.34-3.93,5.42,5.42,0,0,0-.47-1.81c-.42-.22-.78-2.38-.94-2.84-1.75-5.27-3.43-10.56-5.33-15.77s-4.29-10.12-6.34-15.23q-1.57-3.9-3.21-7.77-2.27-5.36-4.68-10.66c-1.4-3.08-2.77-6.95-5.22-9.39a66.58,66.58,0,0,0-21.92-18.2c-3.16-1.62-6.29-3.38-9.46-5s-6.42-3.33-9.72-4.79c-6.12-2.72-12.18-5.58-18.27-8.38-3.12-1.44-6.25-2.86-9.39-4.23-6.68-2.92-13.43-5.69-20.16-8.52-6.27-2.64-12.76-4.94-18.74-8.22-6.76-3.71-13.92-6.63-20.68-10.33-4.76-2.6-9.24-5.66-13.72-8.71a106.86,106.86,0,0,1-16.39-13.77,88.56,88.56,0,0,1-11.38-13.49,33.87,33.87,0,0,1-5.47-16.87c-.71-11.22,2.73-22,8.33-31.61a29.6,29.6,0,0,1,10.78-11.26c12.31-7.19,27.22-6.81,40.76-4.06a76,76,0,0,1,20.59,7.79c6.33,3.39,12.11,7.61,18.27,11.26a27.67,27.67,0,0,1,2.9,1.9,2.76,2.76,0,0,1,1,1.18,2.57,2.57,0,0,1-.31,1.86,17.5,17.5,0,0,1-1.93,3.19,11.72,11.72,0,0,1-4.59,3.8,11.07,11.07,0,0,1-5.9.63,22.93,22.93,0,0,1-5.73-1.75,77.64,77.64,0,0,1-9.5-5c-3.44-2.08-6.55-4.64-10-6.76a30.09,30.09,0,0,0-11.6-4.29,37.29,37.29,0,0,0-7.07-.36,19.88,19.88,0,0,0-11.26,3.8,28.47,28.47,0,0,0-6.36,7.23,18.06,18.06,0,0,0-3.32,8.49,23.27,23.27,0,0,0,.55,9.2,28.12,28.12,0,0,0,2.07,5.61,32.82,32.82,0,0,0,7.07,8.51,41.18,41.18,0,0,0,7.4,4.77q2.17,1.17,4.31,2.39a127,127,0,0,0,15.23,7.21c4.46,1.8,9,3.54,13.5,5.11,2.24.78,4.49,1.56,6.78,2.2,2.12.59,4.44.8,6.62,1.2,11,2,22.06-2.52,31-8.56a141.32,141.32,0,0,0,11.73-8.76c1.9-1.59,3.87-3.11,5.7-4.78s3.26-3.56,5.29-4.91a4.06,4.06,0,0,1,2.67-1c1,.15,1.77,1.08,2.54,1.67,1.12.86,2.25,1.7,3.37,2.55l6.94,5.26q12.56,9.51,25.08,19.05c6,4.67,11.82,9.67,17.8,14.43,6.52,5.19,13.13,10.37,19.3,16A52.08,52.08,0,0,1,413.35,209a296.21,296.21,0,0,1,16.15,38.15c3.66,10.27,7.62,20.44,11,30.82,1.38,4.28,3.14,8.5,4.12,12.89A93,93,0,0,0,448,302.45c1.29,3.41,3.23,6.83,3.86,10.43a46.74,46.74,0,0,1,.53,9.37c-.21,7.87-2.28,15.5-3.24,23.28v0c-1.57,12.84-4.65,25.49-6.89,38.22-1.18,6.7-2.51,13.37-3.4,20.12-.48,3.6-1.6,7-2.2,10.61-1.33,8.73-3.2,17.36-4.41,26.12-.48,3.5-.78,7.34-2.57,10.47a34.75,34.75,0,0,1-5,7.12c-4.61,5.05-11.13,9.32-18,10.43A26.67,26.67,0,0,1,398.08,468.18Z" transform="translate(-59.58 -24.6)"/>
    <path class="cls-1" d="M270.19,160.87a46.45,46.45,0,0,1-8-2.42A218.42,218.42,0,0,1,230.08,145a54.36,54.36,0,0,1-6.62-4,47.62,47.62,0,0,1-6.77-6.27,24.36,24.36,0,0,1-3.53-4.24A20.59,20.59,0,0,1,210.7,125c-1-4-.09-8.21,1.48-11.93,1.72-4.07,4.05-8,8.13-10a25.85,25.85,0,0,1,9.68-2.58c5.35-.32,10.47,1.64,15,4.24,2.35,1.34,4.6,2.86,6.81,4.42s4.44,2.82,6.69,4.25a37.08,37.08,0,0,0,12.85,5.18,18.74,18.74,0,0,0,9.36-.82c2.42-.87,3.84-2.54,5.19-4.63s2.71-3.85,4-5.91a190.88,190.88,0,0,0,10-18.75c1.39-3,3-6,4.56-9,1.9-3.73,3.73-7.49,5.81-11.12,1.89-3.29,4.11-6.52,7.32-8.66a24,24,0,0,1,12.15-4c5.46-.2,11.09,3.07,15,6.59,3,2.66,5.38,6.44,5.67,10.49a41.66,41.66,0,0,1,0,7c-.44,4.57-1.89,8.85-3.35,13.17a126.91,126.91,0,0,1-6.26,14.18,84,84,0,0,1-4.83,8.69c-2.45,3.86-5.46,7.6-8.23,11.27a92.43,92.43,0,0,1-8.92,10.64,113.82,113.82,0,0,1-10.57,8.88A103.81,103.81,0,0,1,292.12,157a37.52,37.52,0,0,1-12.41,4A36.65,36.65,0,0,1,270.19,160.87Z" transform="translate(-59.58 -24.6)"/>
    <path class="cls-1" d="M114.07,149.78a59.11,59.11,0,0,1-15.88-4.45,64.67,64.67,0,0,1-22.69-15.7A60.1,60.1,0,0,1,60.84,100.9,76.52,76.52,0,0,1,59.6,88.53a72.65,72.65,0,0,1,.76-12.85c1.76-11.32,7.56-21.18,14.63-30,5.65-7.06,13.61-12.28,21.87-15.78A63.42,63.42,0,0,1,131,25.26a68.19,68.19,0,0,1,14.43,3.93,57,57,0,0,1,19.8,12.62c2,2.06,3.93,4.27,5.77,6.52a61.76,61.76,0,0,1,8.41,13.62,66.88,66.88,0,0,1,3.71,10.39c2.91,10.92,2.1,22.45-.76,33.3q-.39,1.47-.85,2.92a48.88,48.88,0,0,1-7.32,14.18,68.72,68.72,0,0,1-14.68,15.18,60.52,60.52,0,0,1-8.7,5.86,65.56,65.56,0,0,1-32.72,6.35Q116.06,150,114.07,149.78Z" transform="translate(-59.58 -24.6)"/>
  </g>
</svg>
